<svg width="376" height="50" viewBox="0 0 376 50" fill="none" xmlns="http://www.w3.org/2000/svg">
<path d="M0 50V43.1921C2.16955 45.9153 9.01198 50.1362 19.0253 45.2345C29.0386 40.3328 30.8744 34.3419 30.5406 31.9591C30.8744 27.7609 29.0386 21.0665 19.0253 27.8744C9.01198 34.6822 20.1935 34.5688 27.036 33.6611C18.8584 35.59 2.80373 38.4947 4.00533 34.6822C5.50732 29.9167 19.526 20.7261 28.0373 19.7049C36.5486 18.6837 38.0506 27.534 32.5433 38.767C28.1374 47.7534 35.7142 44.5537 40.0533 41.8305C42.3897 40.4689 46.7622 35.5673 45.5606 26.8532C44.359 18.1391 82.1092 16.1875 101.134 16.3009C81.2747 17.8894 44.4591 21.7472 56.0746 24.4704C67.69 27.1936 114.652 22.428 136.682 19.7049C122.496 22.655 88.718 28.6913 67.0892 29.2359C40.0533 29.9167 42.0559 36.7246 70.5939 38.767C93.0468 40.3738 104.749 33.3329 107.988 29.43C108.039 29.3649 108.091 29.3002 108.144 29.2359C108.094 29.2997 108.042 29.3644 107.988 29.43C102.92 35.8065 100.645 46.3147 131.174 38.767C162.015 31.1421 138.351 31.0514 122.663 31.9591C120.46 32.1837 116.804 32.6752 114.572 33.2966C113.866 33.6555 113.223 34.0066 112.65 34.3418C112.65 33.9714 113.422 33.6168 114.572 33.2966C122.707 29.1607 139.199 23.9927 153.204 30.2571C168.424 37.065 164.218 38.0862 160.213 37.7458C169.225 40.6959 191.455 43.6687 208.277 31.9591C225.099 20.2495 212.616 11.195 204.272 8.13144C194.425 4.7275 174.132 0.438527 171.728 10.5142C169.325 20.5899 175.4 25.832 178.738 27.1935C185.914 29.6898 199.966 32.1633 198.764 22.0876C197.262 9.49302 178.237 14.9394 186.248 19.7049C194.258 24.4704 193.758 21.0665 193.257 19.7049C194.926 23.1088 196.662 28.9636 190.253 25.1512C182.242 20.3856 168.724 15.6201 178.738 13.5778C188.751 11.5354 199.766 6.76986 203.27 13.5778C206.775 20.3856 207.776 37.4054 190.253 34.3418C172.73 31.2783 138.684 22.7684 156.208 8.13144C173.731 -6.50552 231.808 1.32352 252.836 10.5142C273.864 19.7049 287.883 29.9167 300.399 34.3418C312.916 38.767 333.944 35.363 330.439 24.4704C326.935 13.5778 306.407 14.3906 311.915 25.1512C317.422 35.9117 328.937 27.1935 323.931 25.1512C318.924 23.1088 317.422 21.7472 317.422 24.4704C317.422 26.6489 319.091 27.8743 319.925 28.2147C317.422 27.7377 312.916 25.7765 314.919 21.7472C316.921 17.718 324.431 22.3377 327.936 25.1512C328.937 26.5127 328.737 29.9848 319.925 32.9802C308.911 36.7246 289.885 18.6837 307.409 14.2585C324.932 9.83342 334.445 8.47184 338.951 18.3433C342.556 26.2404 361.481 18.4567 370.493 13.5778C360.146 19.7049 342.556 31.9591 354.972 31.9591C367.389 31.9591 374.164 29.4628 376 28.2147V49.3192V50H0Z" fill="#43291F"/>
</svg>
