<svg width="375" height="74" viewBox="0 0 375 74" fill="none" xmlns="http://www.w3.org/2000/svg">
<path d="M0 73.4442V63.4442C2.16667 67.4442 9 73.6442 19 66.4442C29 59.2442 30.8333 50.4442 30.5 46.9442C30.8333 40.7775 29 30.9442 19 40.9442C9 50.9442 20.1667 50.7775 27 49.4442C18.8333 52.2775 2.8 56.5442 4 50.9442C5.5 43.9442 19.5 30.4442 28 28.9442C36.5 27.4442 38 40.4442 32.5 56.9442C28.1 70.1442 35.6667 65.4442 40 61.4442C42.3333 59.4442 46.7 52.2442 45.5 39.4442C44.3 26.6442 82 23.7775 101 23.9442C81.1667 26.2775 44.4 31.9441 56 35.9441C67.6 39.9442 114.5 32.9442 136.5 28.9442C122.333 33.2775 88.6 42.1441 67 42.9441C40 43.9441 42 53.9442 70.5 56.9442C92.9231 59.3045 104.61 48.9621 107.844 43.2292C107.896 43.1336 107.948 43.0385 108 42.9441C107.95 43.0378 107.898 43.1329 107.844 43.2292C102.784 52.5956 100.511 68.031 131 56.9442C161.8 45.7442 138.167 45.6108 122.5 46.9442C120.3 47.2742 116.648 47.9961 114.419 48.9089C113.714 49.4361 113.072 49.9518 112.5 50.4441C112.5 49.9001 113.271 49.3792 114.419 48.9089C122.544 42.8337 139.014 35.2425 153 44.4441C168.2 54.4442 164 55.9442 160 55.4441C169 59.7775 191.2 64.1442 208 46.9442C224.8 29.7442 212.333 16.4441 204 11.9441C194.167 6.94415 173.9 0.644146 171.5 15.4441C169.1 30.2441 175.167 37.9441 178.5 39.9441C185.667 43.6108 199.7 47.2441 198.5 32.4441C197 13.9441 178 21.9442 186 28.9442C194 35.9441 193.5 30.9442 193 28.9442C194.667 33.9442 196.4 42.5441 190 36.9441C182 29.9441 168.5 22.9441 178.5 19.9441C188.5 16.9441 199.5 9.94414 203 19.9441C206.5 29.9441 207.5 54.9441 190 50.4441C172.5 45.9441 138.5 33.4441 156 11.9441C173.5 -9.55586 231.5 1.9441 252.5 15.4441C273.5 28.9442 287.5 43.9441 300 50.4441C312.5 56.9442 333.5 51.9442 330 35.9441C326.5 19.9441 306 21.1381 311.5 36.9441C317 52.7502 328.5 39.9441 323.5 36.9441C318.5 33.9442 317 31.9441 317 35.9441C317 39.1442 318.667 40.9442 319.5 41.4442C317 40.7435 312.5 37.8626 314.5 31.9442C316.5 26.0257 324 32.8114 327.5 36.9441C328.5 38.9441 328.3 44.0442 319.5 48.4442C308.5 53.9442 289.5 27.4442 307 20.9442C324.5 14.4442 334 12.4442 338.5 26.9442C342.1 38.5442 361 27.1108 370 19.9441C359.667 28.9442 342.1 46.9442 354.5 46.9442C366.9 46.9442 373.667 43.2775 375.5 41.4442V72.4442V73.4442H0Z" fill="#43291F"/>
</svg>
