<svg width="150" height="150" viewBox="0 0 150 150" fill="none" xmlns="http://www.w3.org/2000/svg">
<circle cx="75" cy="75" r="75" fill="#43291F"/>
<path d="M72.9844 100H60.3672L60.4453 89.4531H72.9844C75.5885 89.4531 77.7891 88.8281 79.5859 87.5781C81.4089 86.3281 82.7891 84.4661 83.7266 81.9922C84.6901 79.4922 85.1719 76.4193 85.1719 72.7734V70.3125C85.1719 67.5781 84.8984 65.1823 84.3516 63.125C83.8307 61.0417 83.0495 59.3099 82.0078 57.9297C80.9661 56.5234 79.6641 55.4688 78.1016 54.7656C76.5651 54.0625 74.7943 53.7109 72.7891 53.7109H60.1328V43.125H72.7891C76.6432 43.125 80.1719 43.7891 83.375 45.1172C86.6042 46.4193 89.3906 48.2943 91.7344 50.7422C94.1042 53.1641 95.9271 56.0417 97.2031 59.375C98.5052 62.6823 99.1562 66.3542 99.1562 70.3906V72.7734C99.1562 76.7839 98.5052 80.4557 97.2031 83.7891C95.9271 87.1224 94.1172 90 91.7734 92.4219C89.4297 94.8438 86.6562 96.7188 83.4531 98.0469C80.276 99.349 76.7865 100 72.9844 100ZM68.2188 43.125V100H54.5078V43.125H68.2188ZM77.5156 67.7344V75.1953H48.9609V67.7344H77.5156Z" fill="#DA2C38"/>
<path d="M100.031 55.7031H85.8906V45.1172H100.031C101.958 45.1172 103.521 44.7917 104.719 44.1406C105.917 43.4896 106.789 42.5911 107.336 41.4453C107.909 40.2734 108.195 38.9583 108.195 37.5C108.195 35.9375 107.909 34.4922 107.336 33.1641C106.789 31.8359 105.917 30.7682 104.719 29.9609C103.521 29.1276 101.958 28.7109 100.031 28.7109H91.0469V75H77.3359V18.125H100.031C104.589 18.125 108.508 18.9583 111.789 20.625C115.096 22.2917 117.635 24.5833 119.406 27.5C121.177 30.3906 122.062 33.6979 122.062 37.4219C122.062 41.0938 121.177 44.2969 119.406 47.0312C117.635 49.7656 115.096 51.901 111.789 53.4375C108.508 54.9479 104.589 55.7031 100.031 55.7031Z" fill="#DA2C38"/>
<circle cx="39.5" cy="32.5" r="6.5" fill="white"/>
<path d="M39.7734 34.3594C39.9876 34.3594 40.1699 34.3206 40.3203 34.2432C40.4753 34.1611 40.5915 34.0472 40.6689 33.9014C40.751 33.751 40.7897 33.571 40.7852 33.3613H42.9521C42.9567 33.9173 42.82 34.4049 42.542 34.8242C42.2686 35.2389 41.8949 35.5625 41.4209 35.7949C40.9515 36.0228 40.4206 36.1367 39.8281 36.1367C39.2493 36.1367 38.7435 36.0433 38.3105 35.8564C37.8776 35.665 37.5153 35.4007 37.2236 35.0635C36.9365 34.7217 36.7201 34.3229 36.5742 33.8672C36.4329 33.4115 36.3623 32.917 36.3623 32.3838V32.2266C36.3623 31.6934 36.4329 31.1989 36.5742 30.7432C36.7201 30.2829 36.9365 29.8841 37.2236 29.5469C37.5153 29.2051 37.8753 28.9408 38.3037 28.7539C38.7367 28.5625 39.2402 28.4668 39.8145 28.4668C40.4297 28.4668 40.972 28.583 41.4414 28.8154C41.9154 29.0479 42.2868 29.3851 42.5557 29.8271C42.8245 30.2692 42.9567 30.8047 42.9521 31.4336H40.7852C40.7897 31.2103 40.7555 31.0098 40.6826 30.832C40.6097 30.6543 40.4958 30.513 40.3408 30.4082C40.1904 30.2988 39.9967 30.2441 39.7598 30.2441C39.5228 30.2441 39.3314 30.2965 39.1855 30.4014C39.0397 30.5062 38.9281 30.652 38.8506 30.8389C38.7777 31.0212 38.7275 31.2308 38.7002 31.4678C38.6774 31.7048 38.666 31.9577 38.666 32.2266V32.3838C38.666 32.6572 38.6774 32.9147 38.7002 33.1562C38.7275 33.3932 38.7799 33.6029 38.8574 33.7852C38.9349 33.9629 39.0465 34.1042 39.1924 34.209C39.3382 34.3092 39.5319 34.3594 39.7734 34.3594Z" fill="#0A13FE"/>
<path d="M14.3725 88.0786L13.5873 84.2147L16.822 83.5823L17.6024 87.4222C17.7644 88.2197 18.0928 88.8547 18.5874 89.3272C19.0837 89.8077 19.7398 90.1145 20.5558 90.2476C21.3813 90.3871 22.3524 90.3434 23.4689 90.1165L24.2225 89.9633C25.0599 89.7931 25.7766 89.5603 26.3725 89.2648C26.9781 88.9756 27.4598 88.6286 27.8177 88.2237C28.1835 87.8172 28.4255 87.3528 28.5435 86.8305C28.6632 86.3162 28.6607 85.7521 28.5359 85.138L27.7482 81.2621L30.9901 80.6033L31.7777 84.4792C32.0176 85.6595 32.0339 86.7814 31.8265 87.845C31.6287 88.9149 31.2279 89.8849 30.6241 90.755C30.0299 91.6315 29.2622 92.3688 28.3208 92.967C27.389 93.5716 26.305 93.9995 25.0689 94.2507L24.3392 94.399C23.111 94.6486 21.946 94.6778 20.8442 94.4865C19.744 94.3032 18.7501 93.928 17.8626 93.361C16.975 92.7939 16.2282 92.0613 15.6222 91.163C15.0257 90.2711 14.6091 89.243 14.3725 88.0786ZM31.4933 83.0795L14.0759 86.6192L13.2226 82.4204L30.64 78.8807L31.4933 83.0795ZM24.5355 87.4582L22.2507 87.9225L20.4736 79.178L22.7584 78.7136L24.5355 87.4582Z" fill="white"/>
<path d="M35.1527 102.885L21.0402 106.969L18.5138 103.123L36.9547 98.8242L38.5563 101.263L35.1527 102.885ZM25.3893 113.591L34.7372 102.252L37.5511 99.7322L39.1729 102.201L27.9224 117.448L25.3893 113.591ZM30.8358 109.809L28.0708 111.625L23.0649 104.004L25.8299 102.188L30.8358 109.809ZM19.7503 109.919C20.1856 109.634 20.6657 109.571 21.1905 109.733C21.7085 109.899 22.1529 110.264 22.5237 110.829C22.8945 111.394 23.0532 111.946 22.9998 112.488C22.9396 113.034 22.6919 113.449 22.2566 113.735C21.8212 114.021 21.3446 114.081 20.8266 113.915C20.3018 113.754 19.8539 113.391 19.4831 112.826C19.1123 112.261 18.957 111.706 19.0172 111.16C19.0706 110.619 19.3149 110.205 19.7503 109.919Z" fill="white"/>
<path d="M48.7565 112.06L37.5097 125.823L34.2014 123.119L45.4483 109.357L48.7565 112.06Z" fill="white"/>
<path d="M64.7733 131.561L60.4306 130.744L61.0427 127.493L65.3853 128.31C65.9771 128.422 66.4758 128.412 66.8813 128.282C67.2869 128.151 67.6067 127.925 67.8409 127.605C68.0846 127.278 68.2486 126.891 68.333 126.443C68.4233 125.963 68.4189 125.503 68.3197 125.062C68.2286 124.622 68.0224 124.244 67.7012 123.927C67.3815 123.602 66.9257 123.383 66.3339 123.272L63.5748 122.753L60.8984 136.968L56.6877 136.175L59.9761 118.709L66.946 120.021C68.3455 120.285 69.501 120.767 70.4123 121.469C71.3316 122.172 71.9789 123.022 72.3541 124.02C72.7308 125.01 72.8115 126.077 72.5961 127.221C72.3838 128.349 71.9267 129.281 71.2248 130.018C70.5229 130.756 69.6197 131.265 68.5151 131.545C67.4201 131.82 66.1728 131.825 64.7733 131.561Z" fill="white"/>
<path d="M89.2715 126.046L89.9087 129.279L80.9621 131.042L80.3249 127.809L89.2715 126.046ZM80.3621 120.61L83.7982 138.048L79.5943 138.876L76.1583 121.438L80.3621 120.61ZM90.734 118.566L94.17 136.004L89.9782 136.83L86.5421 119.392L90.734 118.566Z" fill="white"/>
<path d="M110.286 116.547L110.682 117.148C111.431 118.282 111.944 119.406 112.222 120.52C112.501 121.622 112.563 122.683 112.408 123.703C112.248 124.716 111.886 125.652 111.322 126.512C110.754 127.365 109.995 128.105 109.044 128.733C108.087 129.365 107.101 129.777 106.086 129.969C105.074 130.15 104.068 130.117 103.067 129.871C102.068 129.614 101.113 129.143 100.202 128.457C99.2931 127.76 98.4643 126.845 97.7153 125.711L97.3184 125.11C96.5695 123.976 96.053 122.854 95.7689 121.745C95.4916 120.631 95.4297 119.57 95.583 118.561C95.7387 117.542 96.1005 116.605 96.6685 115.753C97.2388 114.888 98.0027 114.14 98.9602 113.508C99.911 112.88 100.892 112.476 101.904 112.295C102.919 112.103 103.925 112.136 104.924 112.393C105.918 112.643 106.873 113.114 107.789 113.807C108.704 114.499 109.537 115.412 110.286 116.547ZM107.056 119.542L106.646 118.921C106.161 118.188 105.671 117.585 105.174 117.113C104.68 116.63 104.185 116.28 103.689 116.061C103.193 115.842 102.703 115.756 102.217 115.804C101.734 115.84 101.265 116.008 100.81 116.309C100.335 116.623 99.9856 116.995 99.7625 117.425C99.5349 117.848 99.4279 118.329 99.4414 118.866C99.4548 119.403 99.5865 119.994 99.8365 120.638C100.089 121.271 100.457 121.955 100.941 122.688L101.352 123.309C101.832 124.036 102.315 124.643 102.803 125.13C103.293 125.607 103.785 125.96 104.278 126.19C104.778 126.415 105.27 126.51 105.753 126.474C106.243 126.433 106.726 126.256 107.201 125.942C107.656 125.641 107.995 125.276 108.218 124.846C108.441 124.416 108.544 123.929 108.526 123.385C108.515 122.836 108.386 122.243 108.141 121.606C107.898 120.957 107.536 120.269 107.056 119.542Z" fill="white"/>
<path d="M115.593 95.5988L130.281 105.606L127.876 109.137L115.196 108.105L124.336 114.332L121.924 117.873L107.235 107.866L109.648 104.325L122.327 105.357L113.187 99.1297L115.593 95.5988Z" fill="white"/>
<path d="M127.752 80.8616L134.893 82.3759C135.157 82.7397 135.411 83.2677 135.655 83.9601C135.893 84.6427 136.045 85.4737 136.112 86.4529C136.179 87.432 136.08 88.5466 135.815 89.7965C135.57 90.9508 135.165 91.9588 134.6 92.8206C134.026 93.6807 133.31 94.3731 132.45 94.8978C131.583 95.4129 130.59 95.743 129.469 95.8881C128.343 96.0235 127.102 95.9477 125.749 95.6607L124.782 95.4556C123.428 95.1686 122.265 94.7306 121.292 94.1416C120.319 93.5525 119.544 92.8517 118.968 92.039C118.385 91.2166 118.002 90.316 117.818 89.337C117.637 88.3502 117.661 87.3154 117.89 86.2327C118.23 84.6325 118.76 83.3849 119.483 82.4898C120.197 81.5931 121.055 80.9805 122.056 80.6522C123.049 80.3221 124.139 80.2245 125.325 80.3595L124.472 84.3838C123.882 84.3419 123.364 84.3902 122.919 84.5287C122.467 84.6575 122.095 84.903 121.802 85.2651C121.501 85.6256 121.282 86.1282 121.145 86.7731C121.039 87.2746 121.049 87.7551 121.176 88.2147C121.305 88.6663 121.558 89.0818 121.935 89.4612C122.304 89.839 122.798 90.1767 123.417 90.4743C124.038 90.764 124.786 91.0017 125.662 91.1874L126.653 91.3976C127.521 91.5816 128.296 91.6712 128.979 91.6663C129.664 91.6535 130.257 91.5462 130.757 91.3445C131.251 91.1331 131.659 90.8202 131.98 90.4057C132.294 89.9816 132.519 89.4511 132.654 88.8142C132.748 88.3684 132.794 87.9787 132.79 87.6451C132.777 87.3097 132.738 87.0268 132.67 86.7961C132.596 86.5559 132.519 86.369 132.44 86.2356L129.741 85.6634L129.123 88.5771L126.245 87.9668L127.752 80.8616Z" fill="white"/>
</svg>
