<svg width="119" height="51" viewBox="0 0 119 51" fill="none" xmlns="http://www.w3.org/2000/svg">
<path d="M0 23.1531C0.333333 28.6531 3.3 36.0531 12.5 21.6531C9.83333 23.8197 3.6 27.1531 0 23.1531Z" fill="#E61313"/>
<path d="M10.5 35.1531C11.7 19.5531 24.1667 13.8197 30 13.1531C26.5 13.6531 15.4421 18.1898 17 30.6531C18.5 42.6531 28.8333 43.6531 36 42.6531C34.5 53.6531 9 54.6531 10.5 35.1531Z" fill="#E61313"/>
<path d="M20.5 35.1531C18.1 24.7531 25.1667 18.4864 29 16.6531C18.6 29.8531 26.3333 38.1531 31.5 40.6531C23.5 40.2531 20.8333 36.8197 20.5 35.1531Z" fill="#E61313"/>
<path d="M87 11C75.6698 1.14775 62.1667 0.486404 57 1.15307C61.8333 1.15307 74.8 4.25307 88 16.6531C101.2 29.0531 112.833 25.1531 117 21.6531C111.5 22.4864 98.5 21 87 11Z" fill="#E61313"/>
<path d="M86.5 23.1531C100.1 34.7531 113.5 30.6531 118.5 27.1531C116 29.8197 107.455 37.2898 96.5 36.5C68.7059 34.4964 73.9728 2.49454 49 11C12.6895 23.367 59.7764 41.2259 51.5 23C50.0966 19.9096 45.8333 24.3197 45.5 27.1531C39.8475 21.5006 45.486 15.0866 52 20.1531C62.8941 28.6263 47.713 36.7026 39 33.6531C42.6667 36.6531 51.4 40.4531 57 31.6531C62.6 22.8531 55.3333 18.3198 51 17.1531C67.1691 14.8432 76.9219 38.0612 60 44.1531C47.5 48.6531 33 41.6531 30.5 31.6531C28 21.6531 31.5 6.65309 47.5 4.65309C63.5 2.65309 69.5 8.65309 86.5 23.1531Z" fill="#E61313"/>
</svg>
