<svg width="119" height="50" viewBox="0 0 119 50" fill="none" xmlns="http://www.w3.org/2000/svg">
<path d="M118.5 22.1863C118.167 27.6863 115.2 35.0863 106 20.6863C108.667 22.8529 114.9 26.1863 118.5 22.1863Z" fill="#E61313"/>
<path d="M108 34.1863C106.8 18.5863 94.3333 12.8529 88.5 12.1863C92 12.6863 103.058 17.223 101.5 29.6863C100 41.6863 89.6667 42.6863 82.5 41.6863C84 52.6863 109.5 53.6863 108 34.1863Z" fill="#E61313"/>
<path d="M98 34.1863C100.4 23.7863 93.3333 17.5196 89.5 15.6863C99.9 28.8863 92.1667 37.1863 87 39.6863C95 39.2863 97.6667 35.8529 98 34.1863Z" fill="#E61313"/>
<path d="M31.5 10.0332C42.8302 0.180948 56.3333 -0.480393 61.5 0.186274C56.6667 0.186274 43.7 3.28627 30.5 15.6863C17.3 28.0863 5.66666 24.1863 1.5 20.6863C7 21.5196 20 20.0332 31.5 10.0332Z" fill="#E61313"/>
<path d="M32 22.1863C18.4 33.7863 5 29.6863 0 26.1863C2.5 28.853 11.0448 36.323 22 35.5332C49.7941 33.5296 44.5272 1.52774 69.5 10.0332C105.811 22.4002 58.7236 40.2591 67 22.0332C68.4034 18.9428 72.6667 23.3529 73 26.1863C78.6525 20.5338 73.014 14.1198 66.5 19.1863C55.6059 27.6595 70.787 35.7359 79.5 32.6863C75.8333 35.6863 67.1 39.4863 61.5 30.6863C55.9 21.8863 63.1667 17.353 67.5 16.1863C51.3309 13.8764 41.5781 37.0944 58.5 43.1863C71 47.6863 85.5 40.6863 88 30.6863C90.5 20.6863 87 5.68629 71 3.68629C55 1.68629 49 7.68629 32 22.1863Z" fill="#E61313"/>
</svg>
